<svg width="408" height="412" viewBox="0 0 408 412" fill="none" xmlns="http://www.w3.org/2000/svg">
<rect x="0.5" y="0.5" width="407" height="411" rx="27.5" fill="white"/>
<rect x="0.5" y="0.5" width="407" height="411" rx="27.5" stroke="#EAE0E7"/>
<g clip-path="url(#clip0_228_3438)">
<path d="M49.0519 36.885C48.5619 36.395 47.7719 36.395 47.2819 36.885L38.8719 45.295C38.4819 45.685 38.4819 46.315 38.8719 46.705L47.2819 55.115C47.7719 55.605 48.5619 55.605 49.0519 55.115C49.5419 54.625 49.5419 53.835 49.0519 53.345L41.7119 46.005L49.0619 38.655C49.5419 38.165 49.5419 37.375 49.0519 36.885Z" fill="#9E8BA0"/>
<path d="M155.456 52.3672V54H145.219V52.5713L150.343 46.8672C150.973 46.1654 151.46 45.571 151.804 45.084C152.155 44.5898 152.398 44.1494 152.534 43.7627C152.677 43.3688 152.749 42.9678 152.749 42.5596C152.749 42.0439 152.642 41.5785 152.427 41.1631C152.219 40.7406 151.911 40.404 151.503 40.1533C151.095 39.9027 150.601 39.7773 150.021 39.7773C149.326 39.7773 148.746 39.9134 148.28 40.1855C147.822 40.4505 147.478 40.8229 147.249 41.3027C147.02 41.7826 146.905 42.334 146.905 42.957H144.918C144.918 42.0762 145.111 41.2705 145.498 40.54C145.885 39.8096 146.458 39.2295 147.217 38.7998C147.976 38.363 148.91 38.1445 150.021 38.1445C151.009 38.1445 151.854 38.32 152.556 38.6709C153.257 39.0146 153.795 39.5016 154.167 40.1318C154.547 40.7549 154.736 41.4854 154.736 42.3232C154.736 42.7816 154.658 43.2471 154.5 43.7197C154.35 44.1852 154.138 44.6507 153.866 45.1162C153.601 45.5817 153.29 46.04 152.932 46.4912C152.581 46.9424 152.205 47.3864 151.804 47.8232L147.614 52.3672H155.456ZM167.401 44.9336V47.3184C167.401 48.6003 167.287 49.6816 167.058 50.5625C166.828 51.4434 166.499 52.1523 166.069 52.6895C165.64 53.2266 165.12 53.6169 164.512 53.8604C163.91 54.0967 163.23 54.2148 162.471 54.2148C161.869 54.2148 161.314 54.1396 160.806 53.9893C160.297 53.8389 159.839 53.599 159.431 53.2695C159.03 52.9329 158.686 52.4961 158.399 51.959C158.113 51.4219 157.895 50.7702 157.744 50.0039C157.594 49.2376 157.519 48.3424 157.519 47.3184V44.9336C157.519 43.6517 157.633 42.5775 157.862 41.7109C158.099 40.8444 158.432 40.1497 158.861 39.627C159.291 39.097 159.807 38.7174 160.408 38.4883C161.017 38.2591 161.697 38.1445 162.449 38.1445C163.058 38.1445 163.617 38.2197 164.125 38.3701C164.641 38.5133 165.099 38.7461 165.5 39.0684C165.901 39.3835 166.241 39.806 166.521 40.3359C166.807 40.8587 167.025 41.4997 167.176 42.2588C167.326 43.0179 167.401 43.9095 167.401 44.9336ZM165.403 47.6406V44.6006C165.403 43.8988 165.36 43.2829 165.274 42.7529C165.196 42.2158 165.077 41.7575 164.92 41.3779C164.762 40.9984 164.562 40.6904 164.318 40.4541C164.082 40.2178 163.806 40.0459 163.491 39.9385C163.183 39.8239 162.836 39.7666 162.449 39.7666C161.977 39.7666 161.558 39.8561 161.192 40.0352C160.827 40.207 160.519 40.4827 160.269 40.8623C160.025 41.2419 159.839 41.7396 159.71 42.3555C159.581 42.9714 159.517 43.7197 159.517 44.6006V47.6406C159.517 48.3424 159.556 48.9619 159.635 49.499C159.721 50.0361 159.846 50.5016 160.011 50.8955C160.175 51.2822 160.376 51.6009 160.612 51.8516C160.849 52.1022 161.121 52.2884 161.429 52.4102C161.744 52.5247 162.091 52.582 162.471 52.582C162.958 52.582 163.384 52.4889 163.749 52.3027C164.114 52.1165 164.419 51.8265 164.662 51.4326C164.913 51.0316 165.099 50.5195 165.221 49.8965C165.342 49.2663 165.403 48.5143 165.403 47.6406ZM180.206 52.3672V54H169.969V52.5713L175.093 46.8672C175.723 46.1654 176.21 45.571 176.554 45.084C176.905 44.5898 177.148 44.1494 177.284 43.7627C177.427 43.3688 177.499 42.9678 177.499 42.5596C177.499 42.0439 177.392 41.5785 177.177 41.1631C176.969 40.7406 176.661 40.404 176.253 40.1533C175.845 39.9027 175.351 39.7773 174.771 39.7773C174.076 39.7773 173.496 39.9134 173.03 40.1855C172.572 40.4505 172.228 40.8229 171.999 41.3027C171.77 41.7826 171.655 42.334 171.655 42.957H169.668C169.668 42.0762 169.861 41.2705 170.248 40.54C170.635 39.8096 171.208 39.2295 171.967 38.7998C172.726 38.363 173.66 38.1445 174.771 38.1445C175.759 38.1445 176.604 38.32 177.306 38.6709C178.007 39.0146 178.545 39.5016 178.917 40.1318C179.297 40.7549 179.486 41.4854 179.486 42.3232C179.486 42.7816 179.408 43.2471 179.25 43.7197C179.1 44.1852 178.888 44.6507 178.616 45.1162C178.351 45.5817 178.04 46.04 177.682 46.4912C177.331 46.9424 176.955 47.3864 176.554 47.8232L172.364 52.3672H180.206ZM192.903 48.7363V50.3691H181.603V49.1982L188.606 38.3594H190.229L188.488 41.4961L183.858 48.7363H192.903ZM190.723 38.3594V54H188.735V38.3594H190.723ZM209.028 35.828H210.854V50.568H209.028V35.828ZM203.418 38.424H209.71V39.898H203.418V38.424ZM198.138 53.78H211.382V55.276H198.138V53.78ZM198.138 49.292H199.964V54.462H198.138V49.292ZM195.652 37.28H197.478V46.652H195.652V37.28ZM195.652 46.08H197.148C199.986 46.08 202.648 45.926 205.75 45.376L205.926 46.894C202.736 47.466 200.074 47.598 197.148 47.598H195.652V46.08ZM203.418 42.208H209.71V43.704H203.418V42.208ZM226.935 38.2734V54H224.947V40.7549L220.94 42.2158V40.4219L226.623 38.2734H226.935ZM239.31 38.2734V54H237.322V40.7549L233.315 42.2158V40.4219L238.998 38.2734H239.31ZM250.278 44.056H252.104V47.598H250.278V44.056ZM259.408 35.828H261.234V47.532H259.408V35.828ZM245.108 44.672L244.888 43.308C248.716 43.308 253.578 43.286 257.824 42.802L257.934 43.99C253.578 44.628 248.826 44.672 245.108 44.672ZM247.902 48.258H261.234V52.394H249.728V54.638H247.946V51.184H259.43V49.578H247.902V48.258ZM247.946 54.176H261.894V55.496H247.946V54.176ZM255.448 45.288H259.98V46.476H255.448V45.288ZM251.312 36.202C254.26 36.202 256.196 37.346 256.196 39.194C256.196 41.042 254.26 42.186 251.312 42.186C248.342 42.186 246.406 41.042 246.406 39.194C246.406 37.346 248.342 36.202 251.312 36.202ZM251.312 37.478C249.354 37.478 248.1 38.138 248.1 39.194C248.1 40.25 249.354 40.91 251.312 40.91C253.226 40.91 254.48 40.25 254.48 39.194C254.48 38.138 253.226 37.478 251.312 37.478Z" fill="#49454F"/>
<path d="M358.998 55.015C359.488 55.505 360.278 55.505 360.768 55.015L369.078 46.705C369.468 46.315 369.468 45.685 369.078 45.295L360.768 36.985C360.278 36.495 359.488 36.495 358.998 36.985C358.508 37.475 358.508 38.265 358.998 38.755L366.238 46.005L358.988 53.255C358.508 53.735 358.508 54.535 358.998 55.015Z" fill="#9E8BA0"/>
</g>
<path d="M54.0601 108.312C56.2201 108.312 57.8041 109.624 57.8041 111.528C57.8041 113.416 56.2201 114.728 54.0601 114.728C51.9161 114.728 50.3321 113.416 50.3321 111.528C50.3321 109.624 51.9161 108.312 54.0601 108.312ZM54.0601 109.4C52.6681 109.4 51.6121 110.28 51.6121 111.528C51.6121 112.776 52.6681 113.64 54.0601 113.64C55.4681 113.64 56.5081 112.776 56.5081 111.528C56.5081 110.28 55.4681 109.4 54.0601 109.4ZM60.5241 107.784H61.8681V115.192H60.5241V107.784ZM52.5081 115.896H61.8681V119.416H53.8361V121.592H52.5401V118.424H60.5561V116.968H52.5081V115.896ZM52.5401 121H62.3481V122.056H52.5401V121Z" fill="#1D1B20"/>
<path d="M103.027 113.768H104.355V116.344H103.027V113.768ZM109.667 107.784H110.995V116.296H109.667V107.784ZM99.2669 114.216L99.1069 113.224C101.891 113.224 105.427 113.208 108.515 112.856L108.595 113.72C105.427 114.184 101.971 114.216 99.2669 114.216ZM101.299 116.824H110.995V119.832H102.627V121.464H101.331V118.952H109.683V117.784H101.299V116.824ZM101.331 121.128H111.475V122.088H101.331V121.128ZM106.787 114.664H110.083V115.528H106.787V114.664ZM103.779 108.056C105.923 108.056 107.331 108.888 107.331 110.232C107.331 111.576 105.923 112.408 103.779 112.408C101.619 112.408 100.211 111.576 100.211 110.232C100.211 108.888 101.619 108.056 103.779 108.056ZM103.779 108.984C102.355 108.984 101.443 109.464 101.443 110.232C101.443 111 102.355 111.48 103.779 111.48C105.171 111.48 106.083 111 106.083 110.232C106.083 109.464 105.171 108.984 103.779 108.984Z" fill="#1D1B20"/>
<path d="M152.042 116.408H153.37V118.76H152.042V116.408ZM158.122 107.784H159.45V122.248H158.122V107.784ZM159.018 113.928H161.69V115.048H159.018V113.928ZM148.314 119.496L148.122 118.392C150.714 118.392 154.25 118.36 157.242 117.928L157.354 118.92C154.234 119.48 150.842 119.496 148.314 119.496ZM148.362 109.528H157.018V110.6H148.362V109.528ZM152.698 111.448C154.714 111.448 156.106 112.504 156.106 114.12C156.106 115.752 154.714 116.792 152.698 116.792C150.682 116.792 149.306 115.752 149.306 114.12C149.306 112.504 150.682 111.448 152.698 111.448ZM152.698 112.472C151.402 112.472 150.554 113.128 150.554 114.12C150.554 115.112 151.402 115.768 152.698 115.768C153.994 115.768 154.858 115.112 154.858 114.12C154.858 113.128 153.994 112.472 152.698 112.472ZM152.042 107.8H153.37V110.248H152.042V107.8Z" fill="#1D1B20"/>
<path d="M203.281 108.296H204.449V109.096C204.449 111.864 201.633 113.848 198.625 114.36L198.097 113.288C200.737 112.888 203.281 111.16 203.281 109.096V108.296ZM203.521 108.296H204.673V109.096C204.673 111.112 207.249 112.888 209.857 113.288L209.329 114.36C206.353 113.848 203.521 111.832 203.521 109.096V108.296ZM203.281 116.744H204.593V122.248H203.281V116.744ZM197.441 115.928H210.513V117.032H197.441V115.928Z" fill="#1D1B20"/>
<path d="M248.248 108.376H257.976V113.304H248.248V108.376ZM256.664 109.448H249.544V112.232H256.664V109.448ZM246.568 115.112H259.64V116.184H246.568V115.112ZM252.456 113.016H253.768V115.512H252.456V113.016ZM248.024 117.672H258.024V122.248H256.696V118.76H248.024V117.672Z" fill="#1D1B20"/>
<path d="M297.39 108.536H306.702V109.624H297.39V108.536ZM295.726 113.864H308.83V114.952H295.726V113.864ZM305.838 108.536H307.134V109.608C307.134 110.84 307.134 112.248 306.654 114.248L305.358 114.184C305.838 112.2 305.838 110.808 305.838 109.608V108.536ZM297.326 116.92H307.182V122.056H297.326V116.92ZM305.886 117.976H298.622V120.984H305.886V117.976Z" fill="#1D1B20"/>
<path d="M346.549 115.288H356.485V116.36H346.549V115.288ZM344.869 119.352H357.973V120.456H344.869V119.352ZM350.741 115.848H352.053V119.864H350.741V115.848ZM346.549 108.952H356.325V110.04H347.893V115.688H346.549V108.952ZM347.461 112.056H356.021V113.128H347.461V112.056Z" fill="#1D1B20"/>
<g clip-path="url(#clip1_228_3438)">
<path d="M156.052 157.562V169H154.607V159.367L151.693 160.43V159.125L155.826 157.562H156.052Z" fill="#1D1B20"/>
</g>
<g clip-path="url(#clip2_228_3438)">
<path d="M207.898 167.812V169H200.453V167.961L204.18 163.812C204.638 163.302 204.992 162.87 205.242 162.516C205.497 162.156 205.674 161.836 205.773 161.555C205.878 161.268 205.93 160.977 205.93 160.68C205.93 160.305 205.852 159.966 205.695 159.664C205.544 159.357 205.32 159.112 205.023 158.93C204.727 158.747 204.367 158.656 203.945 158.656C203.44 158.656 203.018 158.755 202.68 158.953C202.346 159.146 202.096 159.417 201.93 159.766C201.763 160.115 201.68 160.516 201.68 160.969H200.234C200.234 160.328 200.375 159.742 200.656 159.211C200.938 158.68 201.354 158.258 201.906 157.945C202.458 157.628 203.138 157.469 203.945 157.469C204.664 157.469 205.279 157.596 205.789 157.852C206.299 158.102 206.69 158.456 206.961 158.914C207.237 159.367 207.375 159.898 207.375 160.508C207.375 160.841 207.318 161.18 207.203 161.523C207.094 161.862 206.94 162.201 206.742 162.539C206.549 162.878 206.323 163.211 206.062 163.539C205.807 163.867 205.534 164.19 205.242 164.508L202.195 167.812H207.898Z" fill="#1D1B20"/>
</g>
<g clip-path="url(#clip3_228_3438)">
<path d="M251.698 162.602H252.729C253.234 162.602 253.651 162.518 253.979 162.352C254.312 162.18 254.56 161.948 254.721 161.656C254.888 161.359 254.971 161.026 254.971 160.656C254.971 160.219 254.898 159.852 254.752 159.555C254.606 159.258 254.388 159.034 254.096 158.883C253.804 158.732 253.435 158.656 252.987 158.656C252.58 158.656 252.221 158.737 251.908 158.898C251.601 159.055 251.359 159.279 251.182 159.57C251.01 159.862 250.924 160.206 250.924 160.602H249.479C249.479 160.023 249.625 159.497 249.916 159.023C250.208 158.549 250.617 158.172 251.143 157.891C251.674 157.609 252.289 157.469 252.987 157.469C253.674 157.469 254.276 157.591 254.791 157.836C255.307 158.076 255.708 158.435 255.994 158.914C256.281 159.388 256.424 159.979 256.424 160.688C256.424 160.974 256.356 161.281 256.221 161.609C256.091 161.932 255.885 162.234 255.604 162.516C255.328 162.797 254.968 163.029 254.526 163.211C254.083 163.388 253.552 163.477 252.932 163.477H251.698V162.602ZM251.698 163.789V162.922H252.932C253.656 162.922 254.255 163.008 254.729 163.18C255.203 163.352 255.575 163.581 255.846 163.867C256.122 164.154 256.315 164.469 256.424 164.812C256.539 165.151 256.596 165.49 256.596 165.828C256.596 166.359 256.505 166.831 256.323 167.242C256.145 167.654 255.893 168.003 255.565 168.289C255.242 168.576 254.862 168.792 254.424 168.938C253.987 169.083 253.51 169.156 252.994 169.156C252.5 169.156 252.033 169.086 251.596 168.945C251.164 168.805 250.781 168.602 250.448 168.336C250.114 168.065 249.854 167.734 249.666 167.344C249.479 166.948 249.385 166.497 249.385 165.992H250.83C250.83 166.388 250.916 166.734 251.088 167.031C251.265 167.328 251.515 167.56 251.838 167.727C252.166 167.888 252.552 167.969 252.994 167.969C253.437 167.969 253.817 167.893 254.135 167.742C254.458 167.586 254.705 167.352 254.877 167.039C255.054 166.727 255.143 166.333 255.143 165.859C255.143 165.385 255.044 164.997 254.846 164.695C254.648 164.388 254.367 164.161 254.002 164.016C253.643 163.865 253.218 163.789 252.729 163.789H251.698Z" fill="#1D1B20"/>
</g>
<g clip-path="url(#clip4_228_3438)">
<path d="M306.419 165.172V166.359H298.2V165.508L303.294 157.625H304.473L303.208 159.906L299.84 165.172H306.419ZM304.833 157.625V169H303.387V157.625H304.833Z" fill="#1D1B20"/>
</g>
<g clip-path="url(#clip5_228_3438)">
<path d="M349.702 163.586L348.546 163.289L349.116 157.625H354.952V158.961H350.343L349.999 162.055C350.207 161.935 350.47 161.823 350.788 161.719C351.111 161.615 351.481 161.562 351.897 161.562C352.423 161.562 352.895 161.654 353.311 161.836C353.728 162.013 354.082 162.268 354.374 162.602C354.671 162.935 354.897 163.336 355.054 163.805C355.21 164.273 355.288 164.797 355.288 165.375C355.288 165.922 355.212 166.424 355.061 166.883C354.916 167.341 354.694 167.742 354.397 168.086C354.1 168.424 353.725 168.688 353.272 168.875C352.824 169.062 352.296 169.156 351.686 169.156C351.228 169.156 350.793 169.094 350.382 168.969C349.975 168.839 349.611 168.643 349.288 168.383C348.97 168.117 348.71 167.789 348.507 167.398C348.309 167.003 348.184 166.539 348.132 166.008H349.507C349.569 166.435 349.694 166.794 349.882 167.086C350.069 167.378 350.314 167.599 350.616 167.75C350.923 167.896 351.28 167.969 351.686 167.969C352.03 167.969 352.335 167.909 352.6 167.789C352.866 167.669 353.09 167.497 353.272 167.273C353.455 167.049 353.593 166.779 353.686 166.461C353.785 166.143 353.835 165.786 353.835 165.391C353.835 165.031 353.785 164.698 353.686 164.391C353.587 164.083 353.439 163.815 353.241 163.586C353.048 163.357 352.811 163.18 352.53 163.055C352.249 162.924 351.926 162.859 351.561 162.859C351.077 162.859 350.71 162.924 350.46 163.055C350.215 163.185 349.962 163.362 349.702 163.586Z" fill="#6750A4"/>
</g>
<rect x="331.929" y="144.5" width="39" height="39" rx="19.5" stroke="#6750A4"/>
<g clip-path="url(#clip6_228_3438)">
<path d="M58.5636 205.609H58.6886V206.836H58.5636C57.798 206.836 57.1574 206.961 56.6418 207.211C56.1261 207.456 55.7173 207.786 55.4152 208.203C55.1131 208.615 54.8944 209.078 54.7589 209.594C54.6287 210.109 54.5636 210.633 54.5636 211.164V212.836C54.5636 213.341 54.6235 213.789 54.7433 214.18C54.8631 214.565 55.0272 214.891 55.2355 215.156C55.4438 215.422 55.6782 215.622 55.9386 215.758C56.2043 215.893 56.4803 215.961 56.7668 215.961C57.1001 215.961 57.397 215.898 57.6574 215.773C57.9178 215.643 58.1365 215.464 58.3136 215.234C58.4959 215 58.6339 214.724 58.7277 214.406C58.8214 214.089 58.8683 213.74 58.8683 213.359C58.8683 213.021 58.8266 212.695 58.7433 212.383C58.66 212.065 58.5324 211.784 58.3605 211.539C58.1886 211.289 57.9725 211.094 57.7121 210.953C57.4569 210.807 57.1522 210.734 56.798 210.734C56.397 210.734 56.022 210.833 55.673 211.031C55.3293 211.224 55.0454 211.479 54.8214 211.797C54.6027 212.109 54.4777 212.451 54.4464 212.82L53.6808 212.812C53.7537 212.229 53.8891 211.732 54.0871 211.32C54.2902 210.904 54.5402 210.565 54.8371 210.305C55.1391 210.039 55.4751 209.846 55.8449 209.727C56.2199 209.602 56.6157 209.539 57.0324 209.539C57.6001 209.539 58.0897 209.646 58.5011 209.859C58.9126 210.073 59.2511 210.359 59.5168 210.719C59.7824 211.073 59.9777 211.474 60.1027 211.922C60.2329 212.365 60.298 212.82 60.298 213.289C60.298 213.826 60.2225 214.328 60.0714 214.797C59.9204 215.266 59.6938 215.677 59.3918 216.031C59.0949 216.385 58.7277 216.661 58.2902 216.859C57.8527 217.057 57.3449 217.156 56.7668 217.156C56.1522 217.156 55.6157 217.031 55.1574 216.781C54.699 216.526 54.3188 216.188 54.0168 215.766C53.7147 215.344 53.4881 214.875 53.3371 214.359C53.186 213.844 53.1105 213.32 53.1105 212.789V212.109C53.1105 211.307 53.1912 210.521 53.3527 209.75C53.5141 208.979 53.7928 208.281 54.1886 207.656C54.5897 207.031 55.1444 206.534 55.8527 206.164C56.561 205.794 57.4647 205.609 58.5636 205.609Z" fill="#1D1B20"/>
</g>
<g clip-path="url(#clip7_228_3438)">
<path d="M109.511 205.625V206.438L104.8 217H103.277L107.98 206.812H101.824V205.625H109.511Z" fill="#1D1B20"/>
</g>
<g clip-path="url(#clip8_228_3438)">
<path d="M158.474 213.922C158.474 214.615 158.313 215.203 157.99 215.688C157.672 216.167 157.24 216.531 156.693 216.781C156.151 217.031 155.539 217.156 154.857 217.156C154.175 217.156 153.56 217.031 153.013 216.781C152.467 216.531 152.034 216.167 151.717 215.688C151.399 215.203 151.24 214.615 151.24 213.922C151.24 213.469 151.326 213.055 151.498 212.68C151.675 212.299 151.922 211.969 152.24 211.688C152.563 211.406 152.943 211.19 153.381 211.039C153.823 210.883 154.31 210.805 154.842 210.805C155.539 210.805 156.162 210.94 156.709 211.211C157.256 211.477 157.685 211.844 157.998 212.312C158.315 212.781 158.474 213.318 158.474 213.922ZM157.021 213.891C157.021 213.469 156.93 213.096 156.748 212.773C156.565 212.445 156.31 212.19 155.982 212.008C155.654 211.826 155.274 211.734 154.842 211.734C154.399 211.734 154.016 211.826 153.693 212.008C153.375 212.19 153.128 212.445 152.951 212.773C152.774 213.096 152.685 213.469 152.685 213.891C152.685 214.328 152.771 214.703 152.943 215.016C153.12 215.323 153.37 215.56 153.693 215.727C154.021 215.888 154.409 215.969 154.857 215.969C155.305 215.969 155.69 215.888 156.013 215.727C156.336 215.56 156.584 215.323 156.756 215.016C156.933 214.703 157.021 214.328 157.021 213.891ZM158.209 208.586C158.209 209.138 158.063 209.635 157.771 210.078C157.48 210.521 157.081 210.87 156.576 211.125C156.071 211.38 155.498 211.508 154.857 211.508C154.206 211.508 153.625 211.38 153.115 211.125C152.61 210.87 152.214 210.521 151.927 210.078C151.641 209.635 151.498 209.138 151.498 208.586C151.498 207.924 151.641 207.362 151.927 206.898C152.219 206.435 152.618 206.081 153.123 205.836C153.628 205.591 154.203 205.469 154.849 205.469C155.5 205.469 156.078 205.591 156.584 205.836C157.089 206.081 157.485 206.435 157.771 206.898C158.063 207.362 158.209 207.924 158.209 208.586ZM156.763 208.609C156.763 208.229 156.683 207.893 156.521 207.602C156.36 207.31 156.136 207.081 155.849 206.914C155.563 206.742 155.23 206.656 154.849 206.656C154.469 206.656 154.136 206.737 153.849 206.898C153.568 207.055 153.347 207.279 153.185 207.57C153.029 207.862 152.951 208.208 152.951 208.609C152.951 209 153.029 209.341 153.185 209.633C153.347 209.924 153.571 210.151 153.857 210.312C154.144 210.474 154.477 210.555 154.857 210.555C155.237 210.555 155.568 210.474 155.849 210.312C156.136 210.151 156.36 209.924 156.521 209.633C156.683 209.341 156.763 209 156.763 208.609Z" fill="#1D1B20"/>
</g>
<g clip-path="url(#clip9_228_3438)">
<path d="M201.883 215.789H202.031C202.865 215.789 203.542 215.672 204.062 215.438C204.583 215.203 204.984 214.888 205.266 214.492C205.547 214.096 205.74 213.651 205.844 213.156C205.948 212.656 206 212.143 206 211.617V209.875C206 209.359 205.94 208.901 205.82 208.5C205.706 208.099 205.544 207.763 205.336 207.492C205.133 207.221 204.901 207.016 204.641 206.875C204.38 206.734 204.104 206.664 203.812 206.664C203.479 206.664 203.18 206.732 202.914 206.867C202.654 206.997 202.432 207.182 202.25 207.422C202.073 207.661 201.938 207.943 201.844 208.266C201.75 208.589 201.703 208.94 201.703 209.32C201.703 209.659 201.745 209.987 201.828 210.305C201.911 210.622 202.039 210.909 202.211 211.164C202.383 211.419 202.596 211.622 202.852 211.773C203.112 211.919 203.417 211.992 203.766 211.992C204.089 211.992 204.391 211.93 204.672 211.805C204.958 211.674 205.211 211.5 205.43 211.281C205.654 211.057 205.831 210.805 205.961 210.523C206.096 210.242 206.174 209.948 206.195 209.641H206.883C206.883 210.073 206.797 210.5 206.625 210.922C206.458 211.339 206.224 211.719 205.922 212.062C205.62 212.406 205.266 212.682 204.859 212.891C204.453 213.094 204.01 213.195 203.531 213.195C202.969 213.195 202.482 213.086 202.07 212.867C201.659 212.648 201.32 212.357 201.055 211.992C200.794 211.628 200.599 211.221 200.469 210.773C200.344 210.32 200.281 209.862 200.281 209.398C200.281 208.857 200.357 208.349 200.508 207.875C200.659 207.401 200.883 206.984 201.18 206.625C201.477 206.26 201.844 205.977 202.281 205.773C202.724 205.57 203.234 205.469 203.812 205.469C204.464 205.469 205.018 205.599 205.477 205.859C205.935 206.12 206.307 206.469 206.594 206.906C206.885 207.344 207.099 207.836 207.234 208.383C207.37 208.93 207.438 209.492 207.438 210.07V210.594C207.438 211.182 207.398 211.781 207.32 212.391C207.247 212.995 207.104 213.573 206.891 214.125C206.682 214.677 206.378 215.172 205.977 215.609C205.576 216.042 205.052 216.385 204.406 216.641C203.766 216.891 202.974 217.016 202.031 217.016H201.883V215.789Z" fill="#1D1B20"/>
</g>
<g clip-path="url(#clip10_228_3438)">
<path d="M249.588 205.562V217H248.143V207.367L245.229 208.43V207.125L249.362 205.562H249.588ZM261.479 210.406V212.141C261.479 213.073 261.395 213.859 261.229 214.5C261.062 215.141 260.823 215.656 260.51 216.047C260.198 216.438 259.82 216.721 259.377 216.898C258.94 217.07 258.445 217.156 257.893 217.156C257.455 217.156 257.052 217.102 256.682 216.992C256.312 216.883 255.979 216.708 255.682 216.469C255.39 216.224 255.14 215.906 254.932 215.516C254.724 215.125 254.565 214.651 254.455 214.094C254.346 213.536 254.291 212.885 254.291 212.141V210.406C254.291 209.474 254.375 208.693 254.541 208.062C254.713 207.432 254.955 206.927 255.268 206.547C255.58 206.161 255.955 205.885 256.393 205.719C256.836 205.552 257.33 205.469 257.877 205.469C258.32 205.469 258.726 205.523 259.096 205.633C259.471 205.737 259.804 205.906 260.096 206.141C260.388 206.37 260.635 206.677 260.838 207.062C261.047 207.443 261.205 207.909 261.315 208.461C261.424 209.013 261.479 209.661 261.479 210.406ZM260.026 212.375V210.164C260.026 209.654 259.994 209.206 259.932 208.82C259.875 208.43 259.789 208.096 259.674 207.82C259.56 207.544 259.414 207.32 259.237 207.148C259.065 206.977 258.864 206.852 258.635 206.773C258.411 206.69 258.158 206.648 257.877 206.648C257.533 206.648 257.229 206.714 256.963 206.844C256.698 206.969 256.474 207.169 256.291 207.445C256.114 207.721 255.979 208.083 255.885 208.531C255.791 208.979 255.744 209.523 255.744 210.164V212.375C255.744 212.885 255.773 213.336 255.83 213.727C255.893 214.117 255.984 214.456 256.104 214.742C256.224 215.023 256.369 215.255 256.541 215.438C256.713 215.62 256.911 215.755 257.135 215.844C257.364 215.927 257.617 215.969 257.893 215.969C258.247 215.969 258.557 215.901 258.823 215.766C259.088 215.63 259.31 215.419 259.487 215.133C259.669 214.841 259.804 214.469 259.893 214.016C259.981 213.557 260.026 213.01 260.026 212.375Z" fill="#1D1B20"/>
</g>
<g clip-path="url(#clip11_228_3438)">
<path d="M298.731 205.562V217H297.286V207.367L294.372 208.43V207.125L298.504 205.562H298.731ZM308.231 205.562V217H306.786V207.367L303.872 208.43V207.125L308.004 205.562H308.231Z" fill="#1D1B20"/>
</g>
<g clip-path="url(#clip12_228_3438)">
<path d="M347.874 205.562V217H346.429V207.367L343.515 208.43V207.125L347.647 205.562H347.874ZM360.077 215.812V217H352.632V215.961L356.358 211.812C356.817 211.302 357.171 210.87 357.421 210.516C357.676 210.156 357.853 209.836 357.952 209.555C358.056 209.268 358.108 208.977 358.108 208.68C358.108 208.305 358.03 207.966 357.874 207.664C357.723 207.357 357.499 207.112 357.202 206.93C356.905 206.747 356.546 206.656 356.124 206.656C355.619 206.656 355.197 206.755 354.858 206.953C354.525 207.146 354.275 207.417 354.108 207.766C353.942 208.115 353.858 208.516 353.858 208.969H352.413C352.413 208.328 352.554 207.742 352.835 207.211C353.116 206.68 353.533 206.258 354.085 205.945C354.637 205.628 355.317 205.469 356.124 205.469C356.843 205.469 357.457 205.596 357.968 205.852C358.478 206.102 358.869 206.456 359.14 206.914C359.416 207.367 359.554 207.898 359.554 208.508C359.554 208.841 359.496 209.18 359.382 209.523C359.272 209.862 359.119 210.201 358.921 210.539C358.728 210.878 358.502 211.211 358.241 211.539C357.986 211.867 357.712 212.19 357.421 212.508L354.374 215.812H360.077Z" fill="#1D1B20"/>
</g>
<g clip-path="url(#clip13_228_3438)">
<path d="M53.0168 253.562V265H51.5714V255.367L48.6574 256.43V255.125L52.7902 253.562H53.0168ZM59.8761 258.602H60.9074C61.4126 258.602 61.8293 258.518 62.1574 258.352C62.4907 258.18 62.7381 257.948 62.8996 257.656C63.0662 257.359 63.1496 257.026 63.1496 256.656C63.1496 256.219 63.0766 255.852 62.9308 255.555C62.785 255.258 62.5662 255.034 62.2746 254.883C61.9829 254.732 61.6131 254.656 61.1652 254.656C60.7589 254.656 60.3996 254.737 60.0871 254.898C59.7798 255.055 59.5376 255.279 59.3605 255.57C59.1886 255.862 59.1027 256.206 59.1027 256.602H57.6574C57.6574 256.023 57.8032 255.497 58.0949 255.023C58.3865 254.549 58.7954 254.172 59.3214 253.891C59.8527 253.609 60.4673 253.469 61.1652 253.469C61.8527 253.469 62.4543 253.591 62.9699 253.836C63.4855 254.076 63.8865 254.435 64.173 254.914C64.4595 255.388 64.6027 255.979 64.6027 256.688C64.6027 256.974 64.535 257.281 64.3996 257.609C64.2694 257.932 64.0636 258.234 63.7824 258.516C63.5063 258.797 63.147 259.029 62.7043 259.211C62.2615 259.388 61.7303 259.477 61.1105 259.477H59.8761V258.602ZM59.8761 259.789V258.922H61.1105C61.8345 258.922 62.4334 259.008 62.9074 259.18C63.3813 259.352 63.7537 259.581 64.0246 259.867C64.3006 260.154 64.4933 260.469 64.6027 260.812C64.7173 261.151 64.7746 261.49 64.7746 261.828C64.7746 262.359 64.6834 262.831 64.5011 263.242C64.324 263.654 64.0714 264.003 63.7433 264.289C63.4204 264.576 63.0402 264.792 62.6027 264.938C62.1652 265.083 61.6886 265.156 61.173 265.156C60.6782 265.156 60.2121 265.086 59.7746 264.945C59.3423 264.805 58.9595 264.602 58.6261 264.336C58.2928 264.065 58.0324 263.734 57.8449 263.344C57.6574 262.948 57.5636 262.497 57.5636 261.992H59.0089C59.0089 262.388 59.0949 262.734 59.2668 263.031C59.4438 263.328 59.6938 263.56 60.0168 263.727C60.3449 263.888 60.7303 263.969 61.173 263.969C61.6157 263.969 61.9959 263.893 62.3136 263.742C62.6365 263.586 62.8839 263.352 63.0558 263.039C63.2329 262.727 63.3214 262.333 63.3214 261.859C63.3214 261.385 63.2225 260.997 63.0246 260.695C62.8266 260.388 62.5454 260.161 62.1808 260.016C61.8214 259.865 61.397 259.789 60.9074 259.789H59.8761Z" fill="#1D1B20"/>
</g>
<g clip-path="url(#clip14_228_3438)">
<path d="M102.16 253.562V265H100.714V255.367L97.8002 256.43V255.125L101.933 253.562H102.16ZM114.597 261.172V262.359H106.378V261.508L111.472 253.625H112.652L111.386 255.906L108.019 261.172H114.597ZM113.011 253.625V265H111.566V253.625H113.011Z" fill="#1D1B20"/>
</g>
<g clip-path="url(#clip15_228_3438)">
<path d="M151.302 253.562V265H149.857V255.367L146.943 256.43V255.125L151.076 253.562H151.302ZM157.881 259.586L156.724 259.289L157.295 253.625H163.131V254.961H158.521L158.177 258.055C158.386 257.935 158.649 257.823 158.967 257.719C159.289 257.615 159.659 257.562 160.076 257.562C160.602 257.562 161.073 257.654 161.49 257.836C161.907 258.013 162.261 258.268 162.552 258.602C162.849 258.935 163.076 259.336 163.232 259.805C163.388 260.273 163.467 260.797 163.467 261.375C163.467 261.922 163.391 262.424 163.24 262.883C163.094 263.341 162.873 263.742 162.576 264.086C162.279 264.424 161.904 264.688 161.451 264.875C161.003 265.062 160.474 265.156 159.865 265.156C159.407 265.156 158.972 265.094 158.56 264.969C158.154 264.839 157.789 264.643 157.467 264.383C157.149 264.117 156.888 263.789 156.685 263.398C156.487 263.003 156.362 262.539 156.31 262.008H157.685C157.748 262.435 157.873 262.794 158.06 263.086C158.248 263.378 158.493 263.599 158.795 263.75C159.102 263.896 159.459 263.969 159.865 263.969C160.209 263.969 160.513 263.909 160.779 263.789C161.045 263.669 161.269 263.497 161.451 263.273C161.633 263.049 161.771 262.779 161.865 262.461C161.964 262.143 162.013 261.786 162.013 261.391C162.013 261.031 161.964 260.698 161.865 260.391C161.766 260.083 161.618 259.815 161.42 259.586C161.227 259.357 160.99 259.18 160.709 259.055C160.427 258.924 160.105 258.859 159.74 258.859C159.256 258.859 158.888 258.924 158.638 259.055C158.394 259.185 158.141 259.362 157.881 259.586Z" fill="#1D1B20"/>
</g>
<g clip-path="url(#clip16_228_3438)">
<path d="M200.445 253.562V265H199V255.367L196.086 256.43V255.125L200.219 253.562H200.445ZM210.742 253.609H210.867V254.836H210.742C209.977 254.836 209.336 254.961 208.82 255.211C208.305 255.456 207.896 255.786 207.594 256.203C207.292 256.615 207.073 257.078 206.938 257.594C206.807 258.109 206.742 258.633 206.742 259.164V260.836C206.742 261.341 206.802 261.789 206.922 262.18C207.042 262.565 207.206 262.891 207.414 263.156C207.622 263.422 207.857 263.622 208.117 263.758C208.383 263.893 208.659 263.961 208.945 263.961C209.279 263.961 209.576 263.898 209.836 263.773C210.096 263.643 210.315 263.464 210.492 263.234C210.674 263 210.812 262.724 210.906 262.406C211 262.089 211.047 261.74 211.047 261.359C211.047 261.021 211.005 260.695 210.922 260.383C210.839 260.065 210.711 259.784 210.539 259.539C210.367 259.289 210.151 259.094 209.891 258.953C209.635 258.807 209.331 258.734 208.977 258.734C208.576 258.734 208.201 258.833 207.852 259.031C207.508 259.224 207.224 259.479 207 259.797C206.781 260.109 206.656 260.451 206.625 260.82L205.859 260.812C205.932 260.229 206.068 259.732 206.266 259.32C206.469 258.904 206.719 258.565 207.016 258.305C207.318 258.039 207.654 257.846 208.023 257.727C208.398 257.602 208.794 257.539 209.211 257.539C209.779 257.539 210.268 257.646 210.68 257.859C211.091 258.073 211.43 258.359 211.695 258.719C211.961 259.073 212.156 259.474 212.281 259.922C212.411 260.365 212.477 260.82 212.477 261.289C212.477 261.826 212.401 262.328 212.25 262.797C212.099 263.266 211.872 263.677 211.57 264.031C211.273 264.385 210.906 264.661 210.469 264.859C210.031 265.057 209.523 265.156 208.945 265.156C208.331 265.156 207.794 265.031 207.336 264.781C206.878 264.526 206.497 264.188 206.195 263.766C205.893 263.344 205.667 262.875 205.516 262.359C205.365 261.844 205.289 261.32 205.289 260.789V260.109C205.289 259.307 205.37 258.521 205.531 257.75C205.693 256.979 205.971 256.281 206.367 255.656C206.768 255.031 207.323 254.534 208.031 254.164C208.74 253.794 209.643 253.609 210.742 253.609Z" fill="#1D1B20"/>
</g>
<g clip-path="url(#clip17_228_3438)">
<rect x="233.143" y="240" width="40" height="40" rx="20" fill="#6750A4"/>
<path d="M250.386 255.013V265H248.738V256.968L246.298 257.795V256.435L250.188 255.013H250.386ZM260.555 255.047V255.949L256.577 265H254.84L258.812 256.359H253.658V255.047H260.555Z" fill="white"/>
</g>
<g clip-path="url(#clip18_228_3438)">
<path d="M298.731 253.562V265H297.286V255.367L294.372 256.43V255.125L298.504 253.562H298.731ZM310.653 261.922C310.653 262.615 310.491 263.203 310.169 263.688C309.851 264.167 309.419 264.531 308.872 264.781C308.33 265.031 307.718 265.156 307.036 265.156C306.353 265.156 305.739 265.031 305.192 264.781C304.645 264.531 304.213 264.167 303.895 263.688C303.577 263.203 303.419 262.615 303.419 261.922C303.419 261.469 303.504 261.055 303.676 260.68C303.853 260.299 304.101 259.969 304.419 259.688C304.741 259.406 305.122 259.19 305.559 259.039C306.002 258.883 306.489 258.805 307.02 258.805C307.718 258.805 308.34 258.94 308.887 259.211C309.434 259.477 309.864 259.844 310.176 260.312C310.494 260.781 310.653 261.318 310.653 261.922ZM309.2 261.891C309.2 261.469 309.109 261.096 308.926 260.773C308.744 260.445 308.489 260.19 308.161 260.008C307.833 259.826 307.452 259.734 307.02 259.734C306.577 259.734 306.195 259.826 305.872 260.008C305.554 260.19 305.307 260.445 305.129 260.773C304.952 261.096 304.864 261.469 304.864 261.891C304.864 262.328 304.95 262.703 305.122 263.016C305.299 263.323 305.549 263.56 305.872 263.727C306.2 263.888 306.588 263.969 307.036 263.969C307.484 263.969 307.869 263.888 308.192 263.727C308.515 263.56 308.762 263.323 308.934 263.016C309.111 262.703 309.2 262.328 309.2 261.891ZM310.387 256.586C310.387 257.138 310.241 257.635 309.95 258.078C309.658 258.521 309.26 258.87 308.754 259.125C308.249 259.38 307.676 259.508 307.036 259.508C306.385 259.508 305.804 259.38 305.294 259.125C304.788 258.87 304.393 258.521 304.106 258.078C303.82 257.635 303.676 257.138 303.676 256.586C303.676 255.924 303.82 255.362 304.106 254.898C304.398 254.435 304.796 254.081 305.301 253.836C305.807 253.591 306.382 253.469 307.028 253.469C307.679 253.469 308.257 253.591 308.762 253.836C309.268 254.081 309.663 254.435 309.95 254.898C310.241 255.362 310.387 255.924 310.387 256.586ZM308.942 256.609C308.942 256.229 308.861 255.893 308.7 255.602C308.538 255.31 308.314 255.081 308.028 254.914C307.741 254.742 307.408 254.656 307.028 254.656C306.648 254.656 306.314 254.737 306.028 254.898C305.747 255.055 305.525 255.279 305.364 255.57C305.208 255.862 305.129 256.208 305.129 256.609C305.129 257 305.208 257.341 305.364 257.633C305.525 257.924 305.749 258.151 306.036 258.312C306.322 258.474 306.656 258.555 307.036 258.555C307.416 258.555 307.747 258.474 308.028 258.312C308.314 258.151 308.538 257.924 308.7 257.633C308.861 257.341 308.942 257 308.942 256.609Z" fill="#1D1B20"/>
</g>
<g clip-path="url(#clip19_228_3438)">
<path d="M347.874 253.562V265H346.429V255.367L343.515 256.43V255.125L347.647 253.562H347.874ZM354.061 263.789H354.21C355.043 263.789 355.72 263.672 356.241 263.438C356.762 263.203 357.163 262.888 357.444 262.492C357.725 262.096 357.918 261.651 358.022 261.156C358.127 260.656 358.179 260.143 358.179 259.617V257.875C358.179 257.359 358.119 256.901 357.999 256.5C357.884 256.099 357.723 255.763 357.515 255.492C357.311 255.221 357.08 255.016 356.819 254.875C356.559 254.734 356.283 254.664 355.991 254.664C355.658 254.664 355.358 254.732 355.093 254.867C354.832 254.997 354.611 255.182 354.429 255.422C354.252 255.661 354.116 255.943 354.022 256.266C353.929 256.589 353.882 256.94 353.882 257.32C353.882 257.659 353.923 257.987 354.007 258.305C354.09 258.622 354.218 258.909 354.39 259.164C354.561 259.419 354.775 259.622 355.03 259.773C355.291 259.919 355.595 259.992 355.944 259.992C356.267 259.992 356.569 259.93 356.85 259.805C357.137 259.674 357.39 259.5 357.608 259.281C357.832 259.057 358.009 258.805 358.14 258.523C358.275 258.242 358.353 257.948 358.374 257.641H359.061C359.061 258.073 358.975 258.5 358.804 258.922C358.637 259.339 358.403 259.719 358.1 260.062C357.798 260.406 357.444 260.682 357.038 260.891C356.632 261.094 356.189 261.195 355.71 261.195C355.147 261.195 354.66 261.086 354.249 260.867C353.837 260.648 353.499 260.357 353.233 259.992C352.973 259.628 352.778 259.221 352.647 258.773C352.522 258.32 352.46 257.862 352.46 257.398C352.46 256.857 352.535 256.349 352.686 255.875C352.837 255.401 353.061 254.984 353.358 254.625C353.655 254.26 354.022 253.977 354.46 253.773C354.903 253.57 355.413 253.469 355.991 253.469C356.642 253.469 357.197 253.599 357.655 253.859C358.114 254.12 358.486 254.469 358.772 254.906C359.064 255.344 359.278 255.836 359.413 256.383C359.548 256.93 359.616 257.492 359.616 258.07V258.594C359.616 259.182 359.577 259.781 359.499 260.391C359.426 260.995 359.283 261.573 359.069 262.125C358.861 262.677 358.556 263.172 358.155 263.609C357.754 264.042 357.231 264.385 356.585 264.641C355.944 264.891 355.153 265.016 354.21 265.016H354.061V263.789Z" fill="#1D1B20"/>
</g>
<g clip-path="url(#clip20_228_3438)">
<path d="M55.7199 311.812V313H48.2746V311.961L52.0011 307.812C52.4595 307.302 52.8136 306.87 53.0636 306.516C53.3188 306.156 53.4959 305.836 53.5949 305.555C53.699 305.268 53.7511 304.977 53.7511 304.68C53.7511 304.305 53.673 303.966 53.5168 303.664C53.3657 303.357 53.1418 303.112 52.8449 302.93C52.548 302.747 52.1886 302.656 51.7668 302.656C51.2615 302.656 50.8397 302.755 50.5011 302.953C50.1678 303.146 49.9178 303.417 49.7511 303.766C49.5845 304.115 49.5011 304.516 49.5011 304.969H48.0558C48.0558 304.328 48.1964 303.742 48.4777 303.211C48.7589 302.68 49.1756 302.258 49.7277 301.945C50.2798 301.628 50.9595 301.469 51.7668 301.469C52.4855 301.469 53.1001 301.596 53.6105 301.852C54.1209 302.102 54.5115 302.456 54.7824 302.914C55.0584 303.367 55.1964 303.898 55.1964 304.508C55.1964 304.841 55.1391 305.18 55.0246 305.523C54.9152 305.862 54.7615 306.201 54.5636 306.539C54.3709 306.878 54.1444 307.211 53.8839 307.539C53.6287 307.867 53.3553 308.19 53.0636 308.508L50.0168 311.812H55.7199ZM64.9074 306.406V308.141C64.9074 309.073 64.824 309.859 64.6574 310.5C64.4907 311.141 64.2511 311.656 63.9386 312.047C63.6261 312.438 63.2485 312.721 62.8058 312.898C62.3683 313.07 61.8735 313.156 61.3214 313.156C60.8839 313.156 60.4803 313.102 60.1105 312.992C59.7407 312.883 59.4074 312.708 59.1105 312.469C58.8188 312.224 58.5688 311.906 58.3605 311.516C58.1522 311.125 57.9933 310.651 57.8839 310.094C57.7746 309.536 57.7199 308.885 57.7199 308.141V306.406C57.7199 305.474 57.8032 304.693 57.9699 304.062C58.1418 303.432 58.3839 302.927 58.6964 302.547C59.0089 302.161 59.3839 301.885 59.8214 301.719C60.2641 301.552 60.7589 301.469 61.3058 301.469C61.7485 301.469 62.1548 301.523 62.5246 301.633C62.8996 301.737 63.2329 301.906 63.5246 302.141C63.8162 302.37 64.0636 302.677 64.2668 303.062C64.4751 303.443 64.6339 303.909 64.7433 304.461C64.8527 305.013 64.9074 305.661 64.9074 306.406ZM63.4543 308.375V306.164C63.4543 305.654 63.423 305.206 63.3605 304.82C63.3032 304.43 63.2173 304.096 63.1027 303.82C62.9881 303.544 62.8423 303.32 62.6652 303.148C62.4933 302.977 62.2928 302.852 62.0636 302.773C61.8397 302.69 61.5871 302.648 61.3058 302.648C60.9621 302.648 60.6574 302.714 60.3918 302.844C60.1261 302.969 59.9022 303.169 59.7199 303.445C59.5428 303.721 59.4074 304.083 59.3136 304.531C59.2199 304.979 59.173 305.523 59.173 306.164V308.375C59.173 308.885 59.2016 309.336 59.2589 309.727C59.3214 310.117 59.4126 310.456 59.5324 310.742C59.6522 311.023 59.798 311.255 59.9699 311.438C60.1418 311.62 60.3397 311.755 60.5636 311.844C60.7928 311.927 61.0454 311.969 61.3214 311.969C61.6756 311.969 61.9855 311.901 62.2511 311.766C62.5168 311.63 62.7381 311.419 62.9152 311.133C63.0975 310.841 63.2329 310.469 63.3214 310.016C63.41 309.557 63.4543 309.01 63.4543 308.375Z" fill="#1D1B20"/>
</g>
<g clip-path="url(#clip21_228_3438)">
<path d="M104.863 311.812V313H97.4174V311.961L101.144 307.812C101.602 307.302 101.956 306.87 102.206 306.516C102.462 306.156 102.639 305.836 102.738 305.555C102.842 305.268 102.894 304.977 102.894 304.68C102.894 304.305 102.816 303.966 102.66 303.664C102.509 303.357 102.285 303.112 101.988 302.93C101.691 302.747 101.331 302.656 100.91 302.656C100.404 302.656 99.9825 302.755 99.644 302.953C99.3106 303.146 99.0606 303.417 98.894 303.766C98.7273 304.115 98.644 304.516 98.644 304.969H97.1987C97.1987 304.328 97.3393 303.742 97.6205 303.211C97.9018 302.68 98.3185 302.258 98.8705 301.945C99.4226 301.628 100.102 301.469 100.91 301.469C101.628 301.469 102.243 301.596 102.753 301.852C103.264 302.102 103.654 302.456 103.925 302.914C104.201 303.367 104.339 303.898 104.339 304.508C104.339 304.841 104.282 305.18 104.167 305.523C104.058 305.862 103.904 306.201 103.706 306.539C103.514 306.878 103.287 307.211 103.027 307.539C102.772 307.867 102.498 308.19 102.206 308.508L99.1596 311.812H104.863ZM111.66 301.562V313H110.214V303.367L107.3 304.43V303.125L111.433 301.562H111.66Z" fill="#1D1B20"/>
</g>
<g clip-path="url(#clip22_228_3438)">
<path d="M154.006 311.812V313H146.56V311.961L150.287 307.812C150.745 307.302 151.099 306.87 151.349 306.516C151.605 306.156 151.782 305.836 151.881 305.555C151.985 305.268 152.037 304.977 152.037 304.68C152.037 304.305 151.959 303.966 151.802 303.664C151.651 303.357 151.427 303.112 151.131 302.93C150.834 302.747 150.474 302.656 150.052 302.656C149.547 302.656 149.125 302.755 148.787 302.953C148.453 303.146 148.203 303.417 148.037 303.766C147.87 304.115 147.787 304.516 147.787 304.969H146.342C146.342 304.328 146.482 303.742 146.763 303.211C147.045 302.68 147.461 302.258 148.013 301.945C148.565 301.628 149.245 301.469 150.052 301.469C150.771 301.469 151.386 301.596 151.896 301.852C152.407 302.102 152.797 302.456 153.068 302.914C153.344 303.367 153.482 303.898 153.482 304.508C153.482 304.841 153.425 305.18 153.31 305.523C153.201 305.862 153.047 306.201 152.849 306.539C152.657 306.878 152.43 307.211 152.17 307.539C151.914 307.867 151.641 308.19 151.349 308.508L148.302 311.812H154.006ZM163.506 311.812V313H156.06V311.961L159.787 307.812C160.245 307.302 160.599 306.87 160.849 306.516C161.105 306.156 161.282 305.836 161.381 305.555C161.485 305.268 161.537 304.977 161.537 304.68C161.537 304.305 161.459 303.966 161.302 303.664C161.151 303.357 160.927 303.112 160.631 302.93C160.334 302.747 159.974 302.656 159.552 302.656C159.047 302.656 158.625 302.755 158.287 302.953C157.953 303.146 157.703 303.417 157.537 303.766C157.37 304.115 157.287 304.516 157.287 304.969H155.842C155.842 304.328 155.982 303.742 156.263 303.211C156.545 302.68 156.961 302.258 157.513 301.945C158.065 301.628 158.745 301.469 159.552 301.469C160.271 301.469 160.886 301.596 161.396 301.852C161.907 302.102 162.297 302.456 162.568 302.914C162.844 303.367 162.982 303.898 162.982 304.508C162.982 304.841 162.925 305.18 162.81 305.523C162.701 305.862 162.547 306.201 162.349 306.539C162.157 306.878 161.93 307.211 161.67 307.539C161.414 307.867 161.141 308.19 160.849 308.508L157.802 311.812H163.506Z" fill="#1D1B20"/>
</g>
<g clip-path="url(#clip23_228_3438)">
<path d="M203.148 311.812V313H195.703V311.961L199.43 307.812C199.888 307.302 200.242 306.87 200.492 306.516C200.747 306.156 200.924 305.836 201.023 305.555C201.128 305.268 201.18 304.977 201.18 304.68C201.18 304.305 201.102 303.966 200.945 303.664C200.794 303.357 200.57 303.112 200.273 302.93C199.977 302.747 199.617 302.656 199.195 302.656C198.69 302.656 198.268 302.755 197.93 302.953C197.596 303.146 197.346 303.417 197.18 303.766C197.013 304.115 196.93 304.516 196.93 304.969H195.484C195.484 304.328 195.625 303.742 195.906 303.211C196.188 302.68 196.604 302.258 197.156 301.945C197.708 301.628 198.388 301.469 199.195 301.469C199.914 301.469 200.529 301.596 201.039 301.852C201.549 302.102 201.94 302.456 202.211 302.914C202.487 303.367 202.625 303.898 202.625 304.508C202.625 304.841 202.568 305.18 202.453 305.523C202.344 305.862 202.19 306.201 201.992 306.539C201.799 306.878 201.573 307.211 201.312 307.539C201.057 307.867 200.784 308.19 200.492 308.508L197.445 311.812H203.148ZM207.305 306.602H208.336C208.841 306.602 209.258 306.518 209.586 306.352C209.919 306.18 210.167 305.948 210.328 305.656C210.495 305.359 210.578 305.026 210.578 304.656C210.578 304.219 210.505 303.852 210.359 303.555C210.214 303.258 209.995 303.034 209.703 302.883C209.411 302.732 209.042 302.656 208.594 302.656C208.188 302.656 207.828 302.737 207.516 302.898C207.208 303.055 206.966 303.279 206.789 303.57C206.617 303.862 206.531 304.206 206.531 304.602H205.086C205.086 304.023 205.232 303.497 205.523 303.023C205.815 302.549 206.224 302.172 206.75 301.891C207.281 301.609 207.896 301.469 208.594 301.469C209.281 301.469 209.883 301.591 210.398 301.836C210.914 302.076 211.315 302.435 211.602 302.914C211.888 303.388 212.031 303.979 212.031 304.688C212.031 304.974 211.964 305.281 211.828 305.609C211.698 305.932 211.492 306.234 211.211 306.516C210.935 306.797 210.576 307.029 210.133 307.211C209.69 307.388 209.159 307.477 208.539 307.477H207.305V306.602ZM207.305 307.789V306.922H208.539C209.263 306.922 209.862 307.008 210.336 307.18C210.81 307.352 211.182 307.581 211.453 307.867C211.729 308.154 211.922 308.469 212.031 308.812C212.146 309.151 212.203 309.49 212.203 309.828C212.203 310.359 212.112 310.831 211.93 311.242C211.753 311.654 211.5 312.003 211.172 312.289C210.849 312.576 210.469 312.792 210.031 312.938C209.594 313.083 209.117 313.156 208.602 313.156C208.107 313.156 207.641 313.086 207.203 312.945C206.771 312.805 206.388 312.602 206.055 312.336C205.721 312.065 205.461 311.734 205.273 311.344C205.086 310.948 204.992 310.497 204.992 309.992H206.438C206.438 310.388 206.523 310.734 206.695 311.031C206.872 311.328 207.122 311.56 207.445 311.727C207.773 311.888 208.159 311.969 208.602 311.969C209.044 311.969 209.424 311.893 209.742 311.742C210.065 311.586 210.312 311.352 210.484 311.039C210.661 310.727 210.75 310.333 210.75 309.859C210.75 309.385 210.651 308.997 210.453 308.695C210.255 308.388 209.974 308.161 209.609 308.016C209.25 307.865 208.826 307.789 208.336 307.789H207.305Z" fill="#1D1B20"/>
</g>
<g clip-path="url(#clip24_228_3438)">
<path d="M252.291 311.812V313H244.846V311.961L248.573 307.812C249.031 307.302 249.385 306.87 249.635 306.516C249.89 306.156 250.067 305.836 250.166 305.555C250.27 305.268 250.323 304.977 250.323 304.68C250.323 304.305 250.244 303.966 250.088 303.664C249.937 303.357 249.713 303.112 249.416 302.93C249.119 302.747 248.76 302.656 248.338 302.656C247.833 302.656 247.411 302.755 247.073 302.953C246.739 303.146 246.489 303.417 246.323 303.766C246.156 304.115 246.073 304.516 246.073 304.969H244.627C244.627 304.328 244.768 303.742 245.049 303.211C245.33 302.68 245.747 302.258 246.299 301.945C246.851 301.628 247.531 301.469 248.338 301.469C249.057 301.469 249.672 301.596 250.182 301.852C250.692 302.102 251.083 302.456 251.354 302.914C251.63 303.367 251.768 303.898 251.768 304.508C251.768 304.841 251.711 305.18 251.596 305.523C251.487 305.862 251.333 306.201 251.135 306.539C250.942 306.878 250.716 307.211 250.455 307.539C250.2 307.867 249.927 308.19 249.635 308.508L246.588 311.812H252.291ZM262.026 309.172V310.359H253.807V309.508L258.901 301.625H260.08L258.815 303.906L255.448 309.172H262.026ZM260.44 301.625V313H258.994V301.625H260.44Z" fill="#1D1B20"/>
</g>
<g clip-path="url(#clip25_228_3438)">
<path d="M301.434 311.812V313H293.989V311.961L297.715 307.812C298.174 307.302 298.528 306.87 298.778 306.516C299.033 306.156 299.21 305.836 299.309 305.555C299.413 305.268 299.465 304.977 299.465 304.68C299.465 304.305 299.387 303.966 299.231 303.664C299.08 303.357 298.856 303.112 298.559 302.93C298.262 302.747 297.903 302.656 297.481 302.656C296.976 302.656 296.554 302.755 296.215 302.953C295.882 303.146 295.632 303.417 295.465 303.766C295.299 304.115 295.215 304.516 295.215 304.969H293.77C293.77 304.328 293.911 303.742 294.192 303.211C294.473 302.68 294.89 302.258 295.442 301.945C295.994 301.628 296.674 301.469 297.481 301.469C298.2 301.469 298.814 301.596 299.325 301.852C299.835 302.102 300.226 302.456 300.497 302.914C300.773 303.367 300.911 303.898 300.911 304.508C300.911 304.841 300.853 305.18 300.739 305.523C300.629 305.862 300.476 306.201 300.278 306.539C300.085 306.878 299.859 307.211 299.598 307.539C299.343 307.867 299.07 308.19 298.778 308.508L295.731 311.812H301.434ZM305.309 307.586L304.153 307.289L304.723 301.625H310.559V302.961H305.95L305.606 306.055C305.814 305.935 306.077 305.823 306.395 305.719C306.718 305.615 307.088 305.562 307.504 305.562C308.031 305.562 308.502 305.654 308.919 305.836C309.335 306.013 309.689 306.268 309.981 306.602C310.278 306.935 310.504 307.336 310.661 307.805C310.817 308.273 310.895 308.797 310.895 309.375C310.895 309.922 310.82 310.424 310.669 310.883C310.523 311.341 310.301 311.742 310.004 312.086C309.708 312.424 309.333 312.688 308.879 312.875C308.432 313.062 307.903 313.156 307.294 313.156C306.835 313.156 306.4 313.094 305.989 312.969C305.583 312.839 305.218 312.643 304.895 312.383C304.577 312.117 304.317 311.789 304.114 311.398C303.916 311.003 303.791 310.539 303.739 310.008H305.114C305.176 310.435 305.301 310.794 305.489 311.086C305.676 311.378 305.921 311.599 306.223 311.75C306.531 311.896 306.887 311.969 307.294 311.969C307.637 311.969 307.942 311.909 308.208 311.789C308.473 311.669 308.697 311.497 308.879 311.273C309.062 311.049 309.2 310.779 309.294 310.461C309.393 310.143 309.442 309.786 309.442 309.391C309.442 309.031 309.393 308.698 309.294 308.391C309.195 308.083 309.046 307.815 308.848 307.586C308.656 307.357 308.419 307.18 308.137 307.055C307.856 306.924 307.533 306.859 307.169 306.859C306.684 306.859 306.317 306.924 306.067 307.055C305.822 307.185 305.57 307.362 305.309 307.586Z" fill="#1D1B20"/>
</g>
<g clip-path="url(#clip26_228_3438)">
<path d="M350.577 311.812V313H343.132V311.961L346.858 307.812C347.317 307.302 347.671 306.87 347.921 306.516C348.176 306.156 348.353 305.836 348.452 305.555C348.556 305.268 348.608 304.977 348.608 304.68C348.608 304.305 348.53 303.966 348.374 303.664C348.223 303.357 347.999 303.112 347.702 302.93C347.405 302.747 347.046 302.656 346.624 302.656C346.119 302.656 345.697 302.755 345.358 302.953C345.025 303.146 344.775 303.417 344.608 303.766C344.442 304.115 344.358 304.516 344.358 304.969H342.913C342.913 304.328 343.054 303.742 343.335 303.211C343.616 302.68 344.033 302.258 344.585 301.945C345.137 301.628 345.817 301.469 346.624 301.469C347.343 301.469 347.957 301.596 348.468 301.852C348.978 302.102 349.369 302.456 349.64 302.914C349.916 303.367 350.054 303.898 350.054 304.508C350.054 304.841 349.996 305.18 349.882 305.523C349.772 305.862 349.619 306.201 349.421 306.539C349.228 306.878 349.002 307.211 348.741 307.539C348.486 307.867 348.212 308.19 347.921 308.508L344.874 311.812H350.577ZM358.171 301.609H358.296V302.836H358.171C357.405 302.836 356.765 302.961 356.249 303.211C355.733 303.456 355.324 303.786 355.022 304.203C354.72 304.615 354.502 305.078 354.366 305.594C354.236 306.109 354.171 306.633 354.171 307.164V308.836C354.171 309.341 354.231 309.789 354.35 310.18C354.47 310.565 354.634 310.891 354.843 311.156C355.051 311.422 355.285 311.622 355.546 311.758C355.811 311.893 356.087 311.961 356.374 311.961C356.707 311.961 357.004 311.898 357.265 311.773C357.525 311.643 357.744 311.464 357.921 311.234C358.103 311 358.241 310.724 358.335 310.406C358.429 310.089 358.475 309.74 358.475 309.359C358.475 309.021 358.434 308.695 358.35 308.383C358.267 308.065 358.14 307.784 357.968 307.539C357.796 307.289 357.58 307.094 357.319 306.953C357.064 306.807 356.759 306.734 356.405 306.734C356.004 306.734 355.629 306.833 355.28 307.031C354.936 307.224 354.653 307.479 354.429 307.797C354.21 308.109 354.085 308.451 354.054 308.82L353.288 308.812C353.361 308.229 353.496 307.732 353.694 307.32C353.897 306.904 354.147 306.565 354.444 306.305C354.746 306.039 355.082 305.846 355.452 305.727C355.827 305.602 356.223 305.539 356.64 305.539C357.207 305.539 357.697 305.646 358.108 305.859C358.52 306.073 358.858 306.359 359.124 306.719C359.39 307.073 359.585 307.474 359.71 307.922C359.84 308.365 359.905 308.82 359.905 309.289C359.905 309.826 359.83 310.328 359.679 310.797C359.528 311.266 359.301 311.677 358.999 312.031C358.702 312.385 358.335 312.661 357.897 312.859C357.46 313.057 356.952 313.156 356.374 313.156C355.759 313.156 355.223 313.031 354.765 312.781C354.306 312.526 353.926 312.188 353.624 311.766C353.322 311.344 353.095 310.875 352.944 310.359C352.793 309.844 352.718 309.32 352.718 308.789V308.109C352.718 307.307 352.798 306.521 352.96 305.75C353.121 304.979 353.4 304.281 353.796 303.656C354.197 303.031 354.752 302.534 355.46 302.164C356.168 301.794 357.072 301.609 358.171 301.609Z" fill="#1D1B20"/>
</g>
<g clip-path="url(#clip27_228_3438)">
<path d="M55.7199 359.812V361H48.2746V359.961L52.0011 355.812C52.4595 355.302 52.8136 354.87 53.0636 354.516C53.3188 354.156 53.4959 353.836 53.5949 353.555C53.699 353.268 53.7511 352.977 53.7511 352.68C53.7511 352.305 53.673 351.966 53.5168 351.664C53.3657 351.357 53.1418 351.112 52.8449 350.93C52.548 350.747 52.1886 350.656 51.7668 350.656C51.2615 350.656 50.8397 350.755 50.5011 350.953C50.1678 351.146 49.9178 351.417 49.7511 351.766C49.5845 352.115 49.5011 352.516 49.5011 352.969H48.0558C48.0558 352.328 48.1964 351.742 48.4777 351.211C48.7589 350.68 49.1756 350.258 49.7277 349.945C50.2798 349.628 50.9595 349.469 51.7668 349.469C52.4855 349.469 53.1001 349.596 53.6105 349.852C54.1209 350.102 54.5115 350.456 54.7824 350.914C55.0584 351.367 55.1964 351.898 55.1964 352.508C55.1964 352.841 55.1391 353.18 55.0246 353.523C54.9152 353.862 54.7615 354.201 54.5636 354.539C54.3709 354.878 54.1444 355.211 53.8839 355.539C53.6287 355.867 53.3553 356.19 53.0636 356.508L50.0168 359.812H55.7199ZM65.1183 349.625V350.438L60.4074 361H58.8839L63.5871 350.812H57.4308V349.625H65.1183Z" fill="#1D1B20"/>
</g>
<g clip-path="url(#clip28_228_3438)">
<path d="M104.863 359.812V361H97.4174V359.961L101.144 355.812C101.602 355.302 101.956 354.87 102.206 354.516C102.462 354.156 102.639 353.836 102.738 353.555C102.842 353.268 102.894 352.977 102.894 352.68C102.894 352.305 102.816 351.966 102.66 351.664C102.509 351.357 102.285 351.112 101.988 350.93C101.691 350.747 101.331 350.656 100.91 350.656C100.404 350.656 99.9825 350.755 99.644 350.953C99.3106 351.146 99.0606 351.417 98.894 351.766C98.7273 352.115 98.644 352.516 98.644 352.969H97.1987C97.1987 352.328 97.3393 351.742 97.6205 351.211C97.9018 350.68 98.3185 350.258 98.8705 349.945C99.4226 349.628 100.102 349.469 100.91 349.469C101.628 349.469 102.243 349.596 102.753 349.852C103.264 350.102 103.654 350.456 103.925 350.914C104.201 351.367 104.339 351.898 104.339 352.508C104.339 352.841 104.282 353.18 104.167 353.523C104.058 353.862 103.904 354.201 103.706 354.539C103.514 354.878 103.287 355.211 103.027 355.539C102.772 355.867 102.498 356.19 102.206 356.508L99.1596 359.812H104.863ZM114.081 357.922C114.081 358.615 113.92 359.203 113.597 359.688C113.279 360.167 112.847 360.531 112.3 360.781C111.759 361.031 111.147 361.156 110.464 361.156C109.782 361.156 109.167 361.031 108.621 360.781C108.074 360.531 107.641 360.167 107.324 359.688C107.006 359.203 106.847 358.615 106.847 357.922C106.847 357.469 106.933 357.055 107.105 356.68C107.282 356.299 107.529 355.969 107.847 355.688C108.17 355.406 108.55 355.19 108.988 355.039C109.43 354.883 109.917 354.805 110.449 354.805C111.147 354.805 111.769 354.94 112.316 355.211C112.863 355.477 113.292 355.844 113.605 356.312C113.923 356.781 114.081 357.318 114.081 357.922ZM112.628 357.891C112.628 357.469 112.537 357.096 112.355 356.773C112.173 356.445 111.917 356.19 111.589 356.008C111.261 355.826 110.881 355.734 110.449 355.734C110.006 355.734 109.623 355.826 109.3 356.008C108.983 356.19 108.735 356.445 108.558 356.773C108.381 357.096 108.292 357.469 108.292 357.891C108.292 358.328 108.378 358.703 108.55 359.016C108.727 359.323 108.977 359.56 109.3 359.727C109.628 359.888 110.016 359.969 110.464 359.969C110.912 359.969 111.298 359.888 111.621 359.727C111.943 359.56 112.191 359.323 112.363 359.016C112.54 358.703 112.628 358.328 112.628 357.891ZM113.816 352.586C113.816 353.138 113.67 353.635 113.378 354.078C113.087 354.521 112.688 354.87 112.183 355.125C111.678 355.38 111.105 355.508 110.464 355.508C109.813 355.508 109.233 355.38 108.722 355.125C108.217 354.87 107.821 354.521 107.535 354.078C107.248 353.635 107.105 353.138 107.105 352.586C107.105 351.924 107.248 351.362 107.535 350.898C107.826 350.435 108.225 350.081 108.73 349.836C109.235 349.591 109.811 349.469 110.456 349.469C111.108 349.469 111.686 349.591 112.191 349.836C112.696 350.081 113.092 350.435 113.378 350.898C113.67 351.362 113.816 351.924 113.816 352.586ZM112.371 352.609C112.371 352.229 112.29 351.893 112.128 351.602C111.967 351.31 111.743 351.081 111.456 350.914C111.17 350.742 110.837 350.656 110.456 350.656C110.076 350.656 109.743 350.737 109.456 350.898C109.175 351.055 108.954 351.279 108.792 351.57C108.636 351.862 108.558 352.208 108.558 352.609C108.558 353 108.636 353.341 108.792 353.633C108.954 353.924 109.178 354.151 109.464 354.312C109.751 354.474 110.084 354.555 110.464 354.555C110.845 354.555 111.175 354.474 111.456 354.312C111.743 354.151 111.967 353.924 112.128 353.633C112.29 353.341 112.371 353 112.371 352.609Z" fill="#1D1B20"/>
</g>
<g clip-path="url(#clip29_228_3438)">
<path d="M154.006 359.812V361H146.56V359.961L150.287 355.812C150.745 355.302 151.099 354.87 151.349 354.516C151.605 354.156 151.782 353.836 151.881 353.555C151.985 353.268 152.037 352.977 152.037 352.68C152.037 352.305 151.959 351.966 151.802 351.664C151.651 351.357 151.427 351.112 151.131 350.93C150.834 350.747 150.474 350.656 150.052 350.656C149.547 350.656 149.125 350.755 148.787 350.953C148.453 351.146 148.203 351.417 148.037 351.766C147.87 352.115 147.787 352.516 147.787 352.969H146.342C146.342 352.328 146.482 351.742 146.763 351.211C147.045 350.68 147.461 350.258 148.013 349.945C148.565 349.628 149.245 349.469 150.052 349.469C150.771 349.469 151.386 349.596 151.896 349.852C152.407 350.102 152.797 350.456 153.068 350.914C153.344 351.367 153.482 351.898 153.482 352.508C153.482 352.841 153.425 353.18 153.31 353.523C153.201 353.862 153.047 354.201 152.849 354.539C152.657 354.878 152.43 355.211 152.17 355.539C151.914 355.867 151.641 356.19 151.349 356.508L148.302 359.812H154.006ZM157.49 359.789H157.638C158.472 359.789 159.149 359.672 159.67 359.438C160.19 359.203 160.592 358.888 160.873 358.492C161.154 358.096 161.347 357.651 161.451 357.156C161.555 356.656 161.607 356.143 161.607 355.617V353.875C161.607 353.359 161.547 352.901 161.427 352.5C161.313 352.099 161.151 351.763 160.943 351.492C160.74 351.221 160.508 351.016 160.248 350.875C159.987 350.734 159.711 350.664 159.42 350.664C159.086 350.664 158.787 350.732 158.521 350.867C158.261 350.997 158.039 351.182 157.857 351.422C157.68 351.661 157.545 351.943 157.451 352.266C157.357 352.589 157.31 352.94 157.31 353.32C157.31 353.659 157.352 353.987 157.435 354.305C157.519 354.622 157.646 354.909 157.818 355.164C157.99 355.419 158.203 355.622 158.459 355.773C158.719 355.919 159.024 355.992 159.373 355.992C159.696 355.992 159.998 355.93 160.279 355.805C160.565 355.674 160.818 355.5 161.037 355.281C161.261 355.057 161.438 354.805 161.568 354.523C161.703 354.242 161.782 353.948 161.802 353.641H162.49C162.49 354.073 162.404 354.5 162.232 354.922C162.065 355.339 161.831 355.719 161.529 356.062C161.227 356.406 160.873 356.682 160.467 356.891C160.06 357.094 159.618 357.195 159.138 357.195C158.576 357.195 158.089 357.086 157.677 356.867C157.266 356.648 156.927 356.357 156.662 355.992C156.401 355.628 156.206 355.221 156.076 354.773C155.951 354.32 155.888 353.862 155.888 353.398C155.888 352.857 155.964 352.349 156.115 351.875C156.266 351.401 156.49 350.984 156.787 350.625C157.084 350.26 157.451 349.977 157.888 349.773C158.331 349.57 158.842 349.469 159.42 349.469C160.071 349.469 160.625 349.599 161.084 349.859C161.542 350.12 161.914 350.469 162.201 350.906C162.493 351.344 162.706 351.836 162.842 352.383C162.977 352.93 163.045 353.492 163.045 354.07V354.594C163.045 355.182 163.006 355.781 162.927 356.391C162.855 356.995 162.711 357.573 162.498 358.125C162.289 358.677 161.985 359.172 161.584 359.609C161.183 360.042 160.659 360.385 160.013 360.641C159.373 360.891 158.581 361.016 157.638 361.016H157.49V359.789Z" fill="#1D1B20"/>
</g>
<g clip-path="url(#clip30_228_3438)">
<path d="M197.805 354.602H198.836C199.341 354.602 199.758 354.518 200.086 354.352C200.419 354.18 200.667 353.948 200.828 353.656C200.995 353.359 201.078 353.026 201.078 352.656C201.078 352.219 201.005 351.852 200.859 351.555C200.714 351.258 200.495 351.034 200.203 350.883C199.911 350.732 199.542 350.656 199.094 350.656C198.688 350.656 198.328 350.737 198.016 350.898C197.708 351.055 197.466 351.279 197.289 351.57C197.117 351.862 197.031 352.206 197.031 352.602H195.586C195.586 352.023 195.732 351.497 196.023 351.023C196.315 350.549 196.724 350.172 197.25 349.891C197.781 349.609 198.396 349.469 199.094 349.469C199.781 349.469 200.383 349.591 200.898 349.836C201.414 350.076 201.815 350.435 202.102 350.914C202.388 351.388 202.531 351.979 202.531 352.688C202.531 352.974 202.464 353.281 202.328 353.609C202.198 353.932 201.992 354.234 201.711 354.516C201.435 354.797 201.076 355.029 200.633 355.211C200.19 355.388 199.659 355.477 199.039 355.477H197.805V354.602ZM197.805 355.789V354.922H199.039C199.763 354.922 200.362 355.008 200.836 355.18C201.31 355.352 201.682 355.581 201.953 355.867C202.229 356.154 202.422 356.469 202.531 356.812C202.646 357.151 202.703 357.49 202.703 357.828C202.703 358.359 202.612 358.831 202.43 359.242C202.253 359.654 202 360.003 201.672 360.289C201.349 360.576 200.969 360.792 200.531 360.938C200.094 361.083 199.617 361.156 199.102 361.156C198.607 361.156 198.141 361.086 197.703 360.945C197.271 360.805 196.888 360.602 196.555 360.336C196.221 360.065 195.961 359.734 195.773 359.344C195.586 358.948 195.492 358.497 195.492 357.992H196.938C196.938 358.388 197.023 358.734 197.195 359.031C197.372 359.328 197.622 359.56 197.945 359.727C198.273 359.888 198.659 359.969 199.102 359.969C199.544 359.969 199.924 359.893 200.242 359.742C200.565 359.586 200.812 359.352 200.984 359.039C201.161 358.727 201.25 358.333 201.25 357.859C201.25 357.385 201.151 356.997 200.953 356.695C200.755 356.388 200.474 356.161 200.109 356.016C199.75 355.865 199.326 355.789 198.836 355.789H197.805ZM212.336 354.406V356.141C212.336 357.073 212.253 357.859 212.086 358.5C211.919 359.141 211.68 359.656 211.367 360.047C211.055 360.438 210.677 360.721 210.234 360.898C209.797 361.07 209.302 361.156 208.75 361.156C208.312 361.156 207.909 361.102 207.539 360.992C207.169 360.883 206.836 360.708 206.539 360.469C206.247 360.224 205.997 359.906 205.789 359.516C205.581 359.125 205.422 358.651 205.312 358.094C205.203 357.536 205.148 356.885 205.148 356.141V354.406C205.148 353.474 205.232 352.693 205.398 352.062C205.57 351.432 205.812 350.927 206.125 350.547C206.438 350.161 206.812 349.885 207.25 349.719C207.693 349.552 208.188 349.469 208.734 349.469C209.177 349.469 209.583 349.523 209.953 349.633C210.328 349.737 210.661 349.906 210.953 350.141C211.245 350.37 211.492 350.677 211.695 351.062C211.904 351.443 212.062 351.909 212.172 352.461C212.281 353.013 212.336 353.661 212.336 354.406ZM210.883 356.375V354.164C210.883 353.654 210.852 353.206 210.789 352.82C210.732 352.43 210.646 352.096 210.531 351.82C210.417 351.544 210.271 351.32 210.094 351.148C209.922 350.977 209.721 350.852 209.492 350.773C209.268 350.69 209.016 350.648 208.734 350.648C208.391 350.648 208.086 350.714 207.82 350.844C207.555 350.969 207.331 351.169 207.148 351.445C206.971 351.721 206.836 352.083 206.742 352.531C206.648 352.979 206.602 353.523 206.602 354.164V356.375C206.602 356.885 206.63 357.336 206.688 357.727C206.75 358.117 206.841 358.456 206.961 358.742C207.081 359.023 207.227 359.255 207.398 359.438C207.57 359.62 207.768 359.755 207.992 359.844C208.221 359.927 208.474 359.969 208.75 359.969C209.104 359.969 209.414 359.901 209.68 359.766C209.945 359.63 210.167 359.419 210.344 359.133C210.526 358.841 210.661 358.469 210.75 358.016C210.839 357.557 210.883 357.01 210.883 356.375Z" fill="#1D1B20"/>
</g>
<g clip-path="url(#clip31_228_3438)">
<path d="M246.948 354.602H247.979C248.484 354.602 248.901 354.518 249.229 354.352C249.562 354.18 249.81 353.948 249.971 353.656C250.138 353.359 250.221 353.026 250.221 352.656C250.221 352.219 250.148 351.852 250.002 351.555C249.856 351.258 249.638 351.034 249.346 350.883C249.054 350.732 248.685 350.656 248.237 350.656C247.83 350.656 247.471 350.737 247.158 350.898C246.851 351.055 246.609 351.279 246.432 351.57C246.26 351.862 246.174 352.206 246.174 352.602H244.729C244.729 352.023 244.875 351.497 245.166 351.023C245.458 350.549 245.867 350.172 246.393 349.891C246.924 349.609 247.539 349.469 248.237 349.469C248.924 349.469 249.526 349.591 250.041 349.836C250.557 350.076 250.958 350.435 251.244 350.914C251.531 351.388 251.674 351.979 251.674 352.688C251.674 352.974 251.606 353.281 251.471 353.609C251.341 353.932 251.135 354.234 250.854 354.516C250.578 354.797 250.218 355.029 249.776 355.211C249.333 355.388 248.802 355.477 248.182 355.477H246.948V354.602ZM246.948 355.789V354.922H248.182C248.906 354.922 249.505 355.008 249.979 355.18C250.453 355.352 250.825 355.581 251.096 355.867C251.372 356.154 251.565 356.469 251.674 356.812C251.789 357.151 251.846 357.49 251.846 357.828C251.846 358.359 251.755 358.831 251.573 359.242C251.395 359.654 251.143 360.003 250.815 360.289C250.492 360.576 250.112 360.792 249.674 360.938C249.237 361.083 248.76 361.156 248.244 361.156C247.75 361.156 247.283 361.086 246.846 360.945C246.414 360.805 246.031 360.602 245.698 360.336C245.364 360.065 245.104 359.734 244.916 359.344C244.729 358.948 244.635 358.497 244.635 357.992H246.08C246.08 358.388 246.166 358.734 246.338 359.031C246.515 359.328 246.765 359.56 247.088 359.727C247.416 359.888 247.802 359.969 248.244 359.969C248.687 359.969 249.067 359.893 249.385 359.742C249.708 359.586 249.955 359.352 250.127 359.039C250.304 358.727 250.393 358.333 250.393 357.859C250.393 357.385 250.294 356.997 250.096 356.695C249.898 356.388 249.617 356.161 249.252 356.016C248.893 355.865 248.468 355.789 247.979 355.789H246.948ZM259.088 349.562V361H257.643V351.367L254.729 352.43V351.125L258.862 349.562H259.088Z" fill="#1D1B20"/>
</g>
<defs>
<clipPath id="clip0_228_3438">
<rect x="32" y="32" width="344" height="28" rx="14" fill="white"/>
</clipPath>
<clipPath id="clip1_228_3438">
<rect x="134.857" y="144" width="40" height="40" rx="20" fill="white"/>
</clipPath>
<clipPath id="clip2_228_3438">
<rect x="184" y="144" width="40" height="40" rx="20" fill="white"/>
</clipPath>
<clipPath id="clip3_228_3438">
<rect x="233.143" y="144" width="40" height="40" rx="20" fill="white"/>
</clipPath>
<clipPath id="clip4_228_3438">
<rect x="282.286" y="144" width="40" height="40" rx="20" fill="white"/>
</clipPath>
<clipPath id="clip5_228_3438">
<rect x="331.429" y="144" width="40" height="40" rx="20" fill="white"/>
</clipPath>
<clipPath id="clip6_228_3438">
<rect x="36.5714" y="192" width="40" height="40" rx="20" fill="white"/>
</clipPath>
<clipPath id="clip7_228_3438">
<rect x="85.7143" y="192" width="40" height="40" rx="20" fill="white"/>
</clipPath>
<clipPath id="clip8_228_3438">
<rect x="134.857" y="192" width="40" height="40" rx="20" fill="white"/>
</clipPath>
<clipPath id="clip9_228_3438">
<rect x="184" y="192" width="40" height="40" rx="20" fill="white"/>
</clipPath>
<clipPath id="clip10_228_3438">
<rect x="233.143" y="192" width="40" height="40" rx="20" fill="white"/>
</clipPath>
<clipPath id="clip11_228_3438">
<rect x="282.286" y="192" width="40" height="40" rx="20" fill="white"/>
</clipPath>
<clipPath id="clip12_228_3438">
<rect x="331.429" y="192" width="40" height="40" rx="20" fill="white"/>
</clipPath>
<clipPath id="clip13_228_3438">
<rect x="36.5714" y="240" width="40" height="40" rx="20" fill="white"/>
</clipPath>
<clipPath id="clip14_228_3438">
<rect x="85.7143" y="240" width="40" height="40" rx="20" fill="white"/>
</clipPath>
<clipPath id="clip15_228_3438">
<rect x="134.857" y="240" width="40" height="40" rx="20" fill="white"/>
</clipPath>
<clipPath id="clip16_228_3438">
<rect x="184" y="240" width="40" height="40" rx="20" fill="white"/>
</clipPath>
<clipPath id="clip17_228_3438">
<rect x="233.143" y="240" width="40" height="40" rx="20" fill="white"/>
</clipPath>
<clipPath id="clip18_228_3438">
<rect x="282.286" y="240" width="40" height="40" rx="20" fill="white"/>
</clipPath>
<clipPath id="clip19_228_3438">
<rect x="331.429" y="240" width="40" height="40" rx="20" fill="white"/>
</clipPath>
<clipPath id="clip20_228_3438">
<rect x="36.5714" y="288" width="40" height="40" rx="20" fill="white"/>
</clipPath>
<clipPath id="clip21_228_3438">
<rect x="85.7143" y="288" width="40" height="40" rx="20" fill="white"/>
</clipPath>
<clipPath id="clip22_228_3438">
<rect x="134.857" y="288" width="40" height="40" rx="20" fill="white"/>
</clipPath>
<clipPath id="clip23_228_3438">
<rect x="184" y="288" width="40" height="40" rx="20" fill="white"/>
</clipPath>
<clipPath id="clip24_228_3438">
<rect x="233.143" y="288" width="40" height="40" rx="20" fill="white"/>
</clipPath>
<clipPath id="clip25_228_3438">
<rect x="282.286" y="288" width="40" height="40" rx="20" fill="white"/>
</clipPath>
<clipPath id="clip26_228_3438">
<rect x="331.429" y="288" width="40" height="40" rx="20" fill="white"/>
</clipPath>
<clipPath id="clip27_228_3438">
<rect x="36.5714" y="336" width="40" height="40" rx="20" fill="white"/>
</clipPath>
<clipPath id="clip28_228_3438">
<rect x="85.7143" y="336" width="40" height="40" rx="20" fill="white"/>
</clipPath>
<clipPath id="clip29_228_3438">
<rect x="134.857" y="336" width="40" height="40" rx="20" fill="white"/>
</clipPath>
<clipPath id="clip30_228_3438">
<rect x="184" y="336" width="40" height="40" rx="20" fill="white"/>
</clipPath>
<clipPath id="clip31_228_3438">
<rect x="233.143" y="336" width="40" height="40" rx="20" fill="white"/>
</clipPath>
</defs>
</svg>
